<?xml version="1.0" encoding="UTF-8" standalone="no"?><!DOCTYPE svg PUBLIC "-//W3C//DTD SVG 1.1//EN" "http://www.w3.org/Graphics/SVG/1.1/DTD/svg11.dtd"><svg width="100%" height="100%" viewBox="0 0 88 75" version="1.1" xmlns="http://www.w3.org/2000/svg" xmlns:xlink="http://www.w3.org/1999/xlink" xml:space="preserve" xmlns:serif="http://www.serif.com/" style="fill-rule:evenodd;clip-rule:evenodd;stroke-linejoin:round;stroke-miterlimit:2;"><path d="M18.75,75c-0.459,0 -0.922,-0.1 -1.353,-0.309c-1.084,-0.522 -1.772,-1.613 -1.772,-2.816l0,-9.375c-5.403,0 -15.625,-3.266 -15.625,-15.625l0,-31.25c0,-5.403 3.266,-15.625 15.625,-15.625l56.25,0c5.403,0 15.625,3.266 15.625,15.625l0,31.25c0,5.403 -2.612,15.625 -12.5,15.625l-39.528,0l-14.769,11.816c-0.566,0.453 -1.256,0.684 -1.953,0.684Zm0,-18.75c1.725,0 3.125,1.397 3.125,3.125l0,5.997l10.547,-8.438c0.556,-0.443 1.244,-0.684 1.953,-0.684l40.625,0c6.122,0 6.247,-9.003 6.25,-9.384l0,-31.241c0,-8.822 -7.825,-9.356 -9.394,-9.375l-56.231,0c-8.822,0 -9.356,7.822 -9.375,9.391l0,31.234c0,8.822 7.822,9.356 9.391,9.375l3.109,0Zm31.25,-25c0,-3.453 -2.797,-6.25 -6.25,-6.25c-3.453,0 -6.25,2.797 -6.25,6.25c0,3.453 2.797,6.25 6.25,6.25c3.453,0 6.25,-2.797 6.25,-6.25Zm-18.75,0c0,-3.453 -2.797,-6.25 -6.25,-6.25c-3.453,0 -6.25,2.797 -6.25,6.25c0,3.453 2.797,6.25 6.25,6.25c3.453,0 6.25,-2.797 6.25,-6.25Zm37.5,0c0,-3.453 -2.797,-6.25 -6.25,-6.25c-3.453,0 -6.25,2.797 -6.25,6.25c0,3.453 2.797,6.25 6.25,6.25c3.453,0 6.25,-2.797 6.25,-6.25Z" style="fill:#6247ff;fill-rule:nonzero;"/></svg>
